<svg width="43" height="25" viewBox="0 0 43 25" fill="none" xmlns="http://www.w3.org/2000/svg">
<path d="M1.5 11.5C0.947715 11.5 0.5 11.9477 0.5 12.5C0.5 13.0523 0.947715 13.5 1.5 13.5V11.5ZM40.5 13.5C41.0523 13.5 41.5 13.0523 41.5 12.5C41.5 11.9477 41.0523 11.5 40.5 11.5V13.5ZM32.7875 0.383692C32.4471 -0.0512353 31.8186 -0.127883 31.3837 0.212495C30.9488 0.552873 30.8721 1.18138 31.2125 1.61631L32.7875 0.383692ZM41 12.5L41.7875 13.1163L42.2698 12.5L41.7875 11.8837L41 12.5ZM31.2125 23.3837C30.8721 23.8186 30.9488 24.4471 31.3837 24.7875C31.8186 25.1279 32.4471 25.0512 32.7875 24.6163L31.2125 23.3837ZM1.5 13.5H40.5V11.5H1.5V13.5ZM31.2125 1.61631L40.2125 13.1163L41.7875 11.8837L32.7875 0.383692L31.2125 1.61631ZM40.2125 11.8837L31.2125 23.3837L32.7875 24.6163L41.7875 13.1163L40.2125 11.8837Z" fill="#35465E"/>
</svg>
