<svg width="15" height="16" viewBox="0 0 15 16" fill="none" xmlns="http://www.w3.org/2000/svg">
<path d="M14.375 10.5C14.2092 10.5 14.0503 10.5658 13.9331 10.6831C13.8158 10.8003 13.75 10.9592 13.75 11.125V13.625C13.75 13.7908 13.6842 13.9497 13.5669 14.0669C13.4497 14.1842 13.2908 14.25 13.125 14.25H1.875C1.70924 14.25 1.55027 14.1842 1.43306 14.0669C1.31585 13.9497 1.25 13.7908 1.25 13.625V11.125C1.25 10.9592 1.18415 10.8003 1.06694 10.6831C0.949732 10.5658 0.79076 10.5 0.625 10.5C0.45924 10.5 0.300269 10.5658 0.183058 10.6831C0.065848 10.8003 0 10.9592 0 11.125L0 13.625C0 14.1223 0.197544 14.5992 0.549175 14.9508C0.900805 15.3025 1.37772 15.5 1.875 15.5H13.125C13.6223 15.5 14.0992 15.3025 14.4508 14.9508C14.8025 14.5992 15 14.1223 15 13.625V11.125C15 10.9592 14.9342 10.8003 14.8169 10.6831C14.6997 10.5658 14.5408 10.5 14.375 10.5Z" fill="white"/>
<path d="M3.30811 8.96125L6.17436 11.8281C6.52654 12.1786 7.00316 12.3753 7.49999 12.3753C7.99682 12.3753 8.47343 12.1786 8.82561 11.8281L11.6919 8.96187C11.7516 8.90422 11.7992 8.83525 11.8319 8.759C11.8647 8.68275 11.8819 8.60074 11.8826 8.51775C11.8834 8.43476 11.8676 8.35246 11.8361 8.27565C11.8047 8.19884 11.7583 8.12906 11.6996 8.07038C11.6409 8.0117 11.5711 7.96529 11.4943 7.93386C11.4175 7.90244 11.3352 7.88662 11.2522 7.88734C11.1693 7.88806 11.0872 7.90531 11.011 7.93806C10.9347 7.97082 10.8658 8.01843 10.8081 8.07812L8.12499 10.76V1.125C8.12499 0.95924 8.05914 0.800269 7.94193 0.683058C7.82472 0.565848 7.66575 0.5 7.49999 0.5C7.33423 0.5 7.17526 0.565848 7.05805 0.683058C6.94084 0.800269 6.87499 0.95924 6.87499 1.125V10.7606L4.19186 8.0775C4.13421 8.01781 4.06524 7.97019 3.98899 7.93744C3.91274 7.90468 3.83073 7.88744 3.74774 7.88672C3.66475 7.886 3.58245 7.90181 3.50564 7.93324C3.42883 7.96466 3.35905 8.01107 3.30037 8.06975C3.24168 8.12844 3.19528 8.19822 3.16385 8.27503C3.13243 8.35184 3.11661 8.43414 3.11733 8.51713C3.11805 8.60011 3.1353 8.68213 3.16805 8.75838C3.20081 8.83463 3.24842 8.9036 3.30811 8.96125Z" fill="white"/>
</svg>
