<svg width="15" height="18" viewBox="0 0 15 18" fill="none" xmlns="http://www.w3.org/2000/svg">
<path d="M11.25 0H3.75C2.7558 0.00119089 1.80267 0.396661 1.09966 1.09966C0.396661 1.80267 0.00119089 2.7558 0 3.75V15C0 15.7956 0.316071 16.5587 0.87868 17.1213C1.44129 17.6839 2.20435 18 3 18H11.25C12.2442 17.9988 13.1973 17.6033 13.9003 16.9003C14.6033 16.1973 14.9988 15.2442 15 14.25V3.75C14.9988 2.7558 14.6033 1.80267 13.9003 1.09966C13.1973 0.396661 12.2442 0.00119089 11.25 0V0ZM13.5 3.75V12H4.5V1.5H11.25C11.8467 1.5 12.419 1.73705 12.841 2.15901C13.2629 2.58097 13.5 3.15326 13.5 3.75ZM3 1.629V12C2.47322 11.9995 1.9557 12.1385 1.5 12.4027V3.75C1.50007 3.28477 1.64435 2.83099 1.91298 2.45115C2.1816 2.07131 2.56137 1.78408 3 1.629ZM11.25 16.5H3C2.60218 16.5 2.22064 16.342 1.93934 16.0607C1.65804 15.7794 1.5 15.3978 1.5 15C1.5 14.6022 1.65804 14.2206 1.93934 13.9393C2.22064 13.658 2.60218 13.5 3 13.5H13.5V14.25C13.5 14.8467 13.2629 15.419 12.841 15.841C12.419 16.2629 11.8467 16.5 11.25 16.5Z" fill="white"/>
</svg>
