<svg width="22" height="26" viewBox="0 0 22 26" fill="none" xmlns="http://www.w3.org/2000/svg">
<path d="M18.494 8.96591L8.954 1.96591C8.20889 1.4203 7.32722 1.09171 6.40676 1.01658C5.48631 0.941444 4.56302 1.12271 3.7393 1.54027C2.91557 1.95783 2.22358 2.59537 1.74006 3.3822C1.25654 4.16902 1.00039 5.07439 1 5.99791V19.9979C1.00016 20.9218 1.25633 21.8277 1.74007 22.6149C2.22382 23.402 2.91621 24.0398 3.74042 24.4573C4.56463 24.8749 5.48841 25.0559 6.40925 24.9802C7.33008 24.9046 8.21196 24.5753 8.957 24.0289L18.497 17.0289C19.1303 16.5645 19.6452 15.9575 20.0002 15.257C20.3552 14.5565 20.5401 13.7822 20.5401 12.9969C20.5401 12.2116 20.3552 11.4374 20.0002 10.7369C19.6452 10.0364 19.1303 9.42932 18.497 8.96491L18.494 8.96591ZM17.31 15.4159L7.77 22.4159C7.32302 22.7425 6.79437 22.9391 6.24257 22.9839C5.69078 23.0286 5.13736 22.9199 4.64357 22.6695C4.14978 22.4192 3.73488 22.0372 3.4448 21.5656C3.15472 21.0941 3.00078 20.5515 3 19.9979V5.99791C2.99445 5.44326 3.14549 4.89829 3.43578 4.42564C3.72606 3.95298 4.1438 3.5718 4.641 3.32591C5.06389 3.1108 5.53154 2.99843 6.006 2.99791C6.64189 3.00034 7.26022 3.2068 7.77 3.58691L17.31 10.5869C17.6895 10.8656 17.9981 11.2297 18.2107 11.6498C18.4234 12.0698 18.5343 12.5341 18.5343 13.0049C18.5343 13.4758 18.4234 13.94 18.2107 14.36C17.9981 14.7801 17.6895 15.1442 17.31 15.4229V15.4159Z" fill="white"/>
<path d="M6.5 2.5L2.5 5V21.5L6.5 23.5L18.5 15V11L6.5 2.5Z" fill="white"/>
<path d="M18.494 8.96591L8.954 1.96591C8.20889 1.4203 7.32722 1.09171 6.40676 1.01658C5.48631 0.941444 4.56302 1.12271 3.7393 1.54027C2.91557 1.95783 2.22358 2.59537 1.74006 3.3822C1.25654 4.16902 1.00039 5.07439 1 5.99791V19.9979C1.00016 20.9218 1.25633 21.8277 1.74007 22.6149C2.22382 23.402 2.91621 24.0398 3.74042 24.4573C4.56463 24.8749 5.48841 25.0559 6.40925 24.9802C7.33008 24.9046 8.21196 24.5753 8.957 24.0289L18.497 17.0289C19.1303 16.5645 19.6452 15.9575 20.0002 15.257C20.3552 14.5565 20.5401 13.7822 20.5401 12.9969C20.5401 12.2116 20.3552 11.4374 20.0002 10.7369C19.6452 10.0364 19.1303 9.42932 18.497 8.96491L18.494 8.96591ZM17.31 15.4159L7.77 22.4159C7.32302 22.7425 6.79437 22.9391 6.24257 22.9839C5.69078 23.0286 5.13736 22.9199 4.64357 22.6695C4.14978 22.4192 3.73488 22.0372 3.4448 21.5656C3.15472 21.0941 3.00078 20.5515 3 19.9979V5.99791C2.99445 5.44326 3.14549 4.89829 3.43578 4.42564C3.72606 3.95298 4.1438 3.5718 4.641 3.32591C5.06389 3.1108 5.53154 2.99843 6.006 2.99791C6.64189 3.00034 7.26022 3.2068 7.77 3.58691L17.31 10.5869C17.6895 10.8656 17.9981 11.2297 18.2107 11.6498C18.4234 12.0698 18.5343 12.5341 18.5343 13.0049C18.5343 13.4758 18.4234 13.94 18.2107 14.36C17.9981 14.7801 17.6895 15.1442 17.31 15.4229V15.4159Z" stroke="white"/>
<path d="M6.5 2.5L2.5 5V21.5L6.5 23.5L18.5 15V11L6.5 2.5Z" stroke="white"/>
</svg>
